<svg width="50" height="14" viewBox="0 0 50 14" fill="none" xmlns="http://www.w3.org/2000/svg">
<path d="M8.888 13.45C8.8 13.45 8.70467 13.4207 8.602 13.362C8.514 13.3033 8.43333 13.2593 8.36 13.23L1.43 8.456C1.21 8.30933 1.04867 8.16267 0.946 8.016C0.843333 7.85467 0.792 7.67133 0.792 7.466V7.07C0.792 6.86467 0.843333 6.68867 0.946 6.542C1.04867 6.39533 1.21 6.24133 1.43 6.08L8.36 1.328C8.43333 1.284 8.514 1.23267 8.602 1.174C8.70467 1.11533 8.8 1.086 8.888 1.086C9.00533 1.086 9.108 1.13 9.196 1.218C9.284 1.29133 9.328 1.40133 9.328 1.548V2.516C9.328 2.67733 9.284 2.81667 9.196 2.934C9.108 3.03667 8.98333 3.13933 8.822 3.242L2.926 7.268L8.822 11.294C8.98333 11.4113 9.108 11.5213 9.196 11.624C9.284 11.7267 9.328 11.866 9.328 12.042V13.01C9.328 13.142 9.284 13.252 9.196 13.34C9.108 13.4133 9.00533 13.45 8.888 13.45ZM40.4134 13.758C40.296 13.758 40.1934 13.7213 40.1054 13.648C40.0174 13.56 39.9734 13.4427 39.9734 13.296V11.294C39.9734 11.074 40.032 10.9053 40.1494 10.788C40.2667 10.6707 40.3987 10.568 40.5454 10.48L45.6274 7.092L40.5454 3.704C40.3987 3.616 40.2667 3.51333 40.1494 3.396C40.032 3.264 39.9734 3.09533 39.9734 2.89V0.866C39.9734 0.734 40.0174 0.631333 40.1054 0.558C40.1934 0.469999 40.296 0.425999 40.4134 0.425999C40.4867 0.425999 40.56 0.447999 40.6334 0.492C40.7067 0.521332 40.7727 0.550666 40.8314 0.58L48.5094 5.816C48.7294 5.96267 48.8907 6.10933 48.9934 6.256C49.096 6.388 49.1474 6.564 49.1474 6.784V7.378C49.1474 7.598 49.096 7.78133 48.9934 7.928C48.8907 8.06 48.7294 8.19933 48.5094 8.346L40.8314 13.582C40.7727 13.626 40.7067 13.67 40.6334 13.714C40.56 13.7433 40.4867 13.758 40.4134 13.758Z" fill="url(#paint0_diamond_1_205)"/>
<defs>
<radialGradient id="paint0_diamond_1_205" cx="0" cy="0" r="1" gradientUnits="userSpaceOnUse" gradientTransform="translate(25 -3.06977) rotate(90) scale(22.0698 42.4419)">
<stop stop-color="#E7463F"/>
<stop offset="1" stop-color="#EF8439"/>
</radialGradient>
</defs>
</svg>
