<svg width="11" height="11" viewBox="0 0 11 11" fill="none" xmlns="http://www.w3.org/2000/svg">
<path d="M0.664062 5.61719L1.10937 6.08594C1.22656 6.20313 1.41406 6.20313 1.50781 6.08594L5.14062 2.45313L5.14062 10.4688C5.14062 10.6094 5.28125 10.75 5.42187 10.75L6.07812 10.75C6.24219 10.75 6.35937 10.6094 6.35937 10.4688L6.35937 2.45313L10.0156 6.08594C10.1094 6.20313 10.2969 6.20313 10.4141 6.08594L10.8594 5.61719C10.9766 5.52344 10.9766 5.33594 10.8594 5.21875L5.96094 0.320313C5.84375 0.203125 5.67969 0.203125 5.5625 0.320313L0.664062 5.21875C0.546874 5.33594 0.546874 5.52344 0.664062 5.61719Z" fill="#666666"/>
</svg>
