<svg width="23" height="19" viewBox="0 0 23 19" fill="none" xmlns="http://www.w3.org/2000/svg">
<path d="M11.25 0.84375C5 0.84375 0 5.88281 0 12.0938C0 14.1641 0.546875 16.1172 1.52344 17.7578C1.71875 18.1484 2.14844 18.3438 2.57812 18.3438H19.8828C20.3125 18.3438 20.7422 18.1484 20.9375 17.7578C21.9141 16.1172 22.5 14.1641 22.5 12.0938C22.5 5.88281 17.4609 0.84375 11.25 0.84375ZM15.2344 5.53125L12.8516 12.7188C13.3984 13.1875 13.75 13.8516 13.75 14.5938C13.75 15.0625 13.5938 15.4922 13.3984 15.8438H9.0625C8.86719 15.4922 8.75 15.0625 8.75 14.5938C8.75 13.3047 9.76562 12.2109 11.0547 12.1328L13.4766 4.94531C13.6328 4.4375 14.1406 4.16406 14.6484 4.35938C15.1562 4.51562 15.3906 5.0625 15.2344 5.53125Z" fill="white"/>
</svg>
