<svg width="14" height="16" viewBox="0 0 14 16" fill="none" xmlns="http://www.w3.org/2000/svg">
<path d="M13.75 2H10.5L9.4375 0.625C9.15625 0.25 8.71875 0 8.25 0H5.75C5.25 0 4.8125 0.25 4.53125 0.625L3.5 2H0.25C0.09375 2 0 2.125 0 2.25V2.75C0 2.90625 0.09375 3 0.25 3H0.8125L1.875 14.6562C1.9375 15.4062 2.5625 16 3.34375 16H10.625C11.4062 16 12.0312 15.4062 12.0938 14.6562L13.1562 3H13.75C13.875 3 14 2.90625 14 2.75V2.25C14 2.125 13.875 2 13.75 2ZM5.34375 1.21875C5.4375 1.09375 5.5625 1.03125 5.75 1H8.25C8.40625 1.03125 8.53125 1.09375 8.625 1.21875L9.25 2H4.75L5.34375 1.21875ZM11.125 14.5625C11.0938 14.8125 10.875 15 10.625 15H3.34375C3.09375 15 2.875 14.8125 2.875 14.5625L1.84375 3H12.1562L11.125 14.5625Z" fill="url(#paint0_diamond_1_275)"/>
<defs>
<radialGradient id="paint0_diamond_1_275" cx="0" cy="0" r="1" gradientUnits="userSpaceOnUse" gradientTransform="translate(7 2.11628) rotate(90) scale(11.8837)">
<stop stop-color="#E7463F"/>
<stop offset="1" stop-color="#EF8439"/>
</radialGradient>
</defs>
</svg>
